<svg xmlns="http://www.w3.org/2000/svg" xmlns:xlink="http://www.w3.org/1999/xlink" width="500" zoomAndPan="magnify" viewBox="0 0 375 374.999991" height="500" preserveAspectRatio="xMidYMid meet" version="1.0"><defs><g/><clipPath id="3396914e1b"><path d="M 37.5 150.042969 L 132.75 150.042969 L 132.75 217.542969 L 37.5 217.542969 Z M 37.5 150.042969 " clip-rule="nonzero"/></clipPath><clipPath id="5e7a218861"><path d="M 70.433594 197.109375 C 70.761719 196.492188 71.089844 195.859375 71.421875 195.203125 C 72.503906 193.0625 73.628906 190.714844 74.78125 188.171875 L 74.789062 188.175781 L 75.605469 186.332031 C 75.605469 186.328125 75.609375 186.328125 75.609375 186.324219 L 76.425781 184.476562 L 76.421875 184.472656 C 80.023438 176.167969 83.207031 167.695312 85.125 162.390625 C 86.03125 164.894531 87.21875 168.101562 88.589844 171.644531 L 89.320312 173.53125 L 93.085938 172.070312 L 92.355469 170.183594 C 89.210938 162.050781 87.0625 155.738281 87.042969 155.675781 L 85.125 150.042969 L 83.210938 155.679688 C 83.160156 155.828125 78.046875 170.84375 71.925781 184.660156 L 71.914062 184.6875 C 70.363281 188.191406 68.863281 191.347656 67.4375 194.109375 L 65.921875 192.589844 L 37.515625 164.136719 L 39.5625 171.535156 C 39.59375 171.65625 41.882812 179.882812 45.804688 190.648438 C 46.046875 191.320312 46.300781 192.003906 46.558594 192.691406 C 48.261719 197.265625 50.234375 202.214844 52.4375 207.140625 C 53.921875 210.457031 55.941406 211.21875 57.378906 211.277344 C 57.441406 211.277344 57.503906 211.277344 57.566406 211.277344 C 60.507812 211.277344 63.589844 208.554688 67.308594 202.589844 C 67.667969 202.015625 68.027344 201.417969 68.398438 200.789062 L 70.445312 197.117188 Z M 57.539062 207.234375 C 57.140625 207.21875 56.601562 206.550781 56.125 205.488281 C 54.1875 201.148438 52.425781 196.789062 50.875 192.695312 C 50.613281 192.003906 50.359375 191.324219 50.109375 190.652344 C 48.347656 185.890625 46.890625 181.566406 45.796875 178.152344 L 63.929688 196.320312 L 65.4375 197.828125 C 60.195312 207.054688 57.808594 207.253906 57.539062 207.234375 Z M 132.734375 164.136719 L 130.6875 171.535156 C 130.65625 171.664062 128.074219 180.9375 123.691406 192.691406 C 123.441406 193.367188 123.183594 194.046875 122.921875 194.738281 C 121.402344 198.726562 119.6875 202.941406 117.808594 207.144531 C 116.328125 210.460938 114.308594 211.222656 112.871094 211.277344 C 112.804688 211.28125 112.742188 211.28125 112.679688 211.28125 C 109.738281 211.28125 106.65625 208.558594 102.9375 202.589844 L 105.875 199.644531 C 110.28125 206.925781 112.375 207.234375 112.6875 207.234375 C 112.695312 207.234375 112.703125 207.234375 112.703125 207.234375 C 113.101562 207.21875 113.644531 206.550781 114.117188 205.488281 C 115.738281 201.859375 117.234375 198.222656 118.585938 194.734375 C 118.851562 194.046875 119.117188 193.363281 119.371094 192.6875 C 121.476562 187.125 123.195312 182.042969 124.449219 178.148438 L 104.804688 197.824219 L 101.847656 200.785156 L 85.117188 217.542969 L 69.875 202.277344 C 69.96875 202.125 70.054688 201.972656 70.148438 201.816406 L 71.933594 198.613281 L 85.117188 211.820312 L 99.800781 197.113281 L 99.808594 197.105469 C 99.484375 196.492188 99.15625 195.855469 98.824219 195.199219 C 97.648438 192.878906 96.425781 190.316406 95.171875 187.527344 L 83.097656 187.527344 L 83.097656 183.480469 L 97.796875 183.480469 L 98.328125 184.683594 C 99.535156 187.402344 100.707031 189.90625 101.835938 192.1875 C 102.160156 192.84375 102.484375 193.488281 102.804688 194.105469 Z M 132.734375 164.136719 " clip-rule="nonzero"/></clipPath><linearGradient x1="1506.56995" gradientTransform="matrix(0.0316012, 0, 0, 0.031653, 37.51614, 150.042956)" y1="2132.499949" x2="1506.56995" gradientUnits="userSpaceOnUse" y2="-0.0000458658" id="bd0fa0843e"><stop stop-opacity="1" stop-color="rgb(76.800537%, 53.974915%, 19.306946%)" offset="0"/><stop stop-opacity="1" stop-color="rgb(76.864624%, 54.084778%, 19.442749%)" offset="0.0078125"/><stop stop-opacity="1" stop-color="rgb(76.992798%, 54.304504%, 19.715881%)" offset="0.015625"/><stop stop-opacity="1" stop-color="rgb(77.119446%, 54.524231%, 19.989014%)" offset="0.0234375"/><stop stop-opacity="1" stop-color="rgb(77.24762%, 54.742432%, 20.262146%)" offset="0.03125"/><stop stop-opacity="1" stop-color="rgb(77.375793%, 54.962158%, 20.535278%)" offset="0.0390625"/><stop stop-opacity="1" stop-color="rgb(77.503967%, 55.181885%, 20.808411%)" offset="0.046875"/><stop stop-opacity="1" stop-color="rgb(77.632141%, 55.401611%, 21.081543%)" offset="0.0546875"/><stop stop-opacity="1" stop-color="rgb(77.758789%, 55.619812%, 21.354675%)" offset="0.0625"/><stop stop-opacity="1" stop-color="rgb(77.886963%, 55.839539%, 21.627808%)" offset="0.0703125"/><stop stop-opacity="1" stop-color="rgb(78.015137%, 56.059265%, 21.90094%)" offset="0.078125"/><stop stop-opacity="1" stop-color="rgb(78.143311%, 56.278992%, 22.174072%)" offset="0.0859375"/><stop stop-opacity="1" stop-color="rgb(78.269958%, 56.498718%, 22.447205%)" offset="0.09375"/><stop stop-opacity="1" stop-color="rgb(78.398132%, 56.716919%, 22.720337%)" offset="0.101562"/><stop stop-opacity="1" stop-color="rgb(78.526306%, 56.936646%, 22.993469%)" offset="0.109375"/><stop stop-opacity="1" stop-color="rgb(78.65448%, 57.156372%, 23.266602%)" offset="0.117187"/><stop stop-opacity="1" stop-color="rgb(78.782654%, 57.376099%, 23.539734%)" offset="0.125"/><stop stop-opacity="1" stop-color="rgb(78.909302%, 57.594299%, 23.812866%)" offset="0.132813"/><stop stop-opacity="1" stop-color="rgb(79.037476%, 57.814026%, 24.085999%)" offset="0.140625"/><stop stop-opacity="1" stop-color="rgb(79.165649%, 58.033752%, 24.359131%)" offset="0.148438"/><stop stop-opacity="1" stop-color="rgb(79.293823%, 58.253479%, 24.632263%)" offset="0.15625"/><stop stop-opacity="1" stop-color="rgb(79.421997%, 58.47168%, 24.905396%)" offset="0.164062"/><stop stop-opacity="1" stop-color="rgb(79.548645%, 58.691406%, 25.178528%)" offset="0.171875"/><stop stop-opacity="1" stop-color="rgb(79.676819%, 58.911133%, 25.45166%)" offset="0.179688"/><stop stop-opacity="1" stop-color="rgb(79.804993%, 59.130859%, 25.724792%)" offset="0.1875"/><stop stop-opacity="1" stop-color="rgb(79.933167%, 59.350586%, 25.997925%)" offset="0.195312"/><stop stop-opacity="1" stop-color="rgb(80.059814%, 59.568787%, 26.271057%)" offset="0.203125"/><stop stop-opacity="1" stop-color="rgb(80.187988%, 59.788513%, 26.544189%)" offset="0.210938"/><stop stop-opacity="1" stop-color="rgb(80.316162%, 60.00824%, 26.817322%)" offset="0.21875"/><stop stop-opacity="1" stop-color="rgb(80.444336%, 60.227966%, 27.090454%)" offset="0.226563"/><stop stop-opacity="1" stop-color="rgb(80.57251%, 60.446167%, 27.363586%)" offset="0.234375"/><stop stop-opacity="1" stop-color="rgb(80.699158%, 60.665894%, 27.636719%)" offset="0.242188"/><stop stop-opacity="1" stop-color="rgb(80.827332%, 60.88562%, 27.909851%)" offset="0.25"/><stop stop-opacity="1" stop-color="rgb(80.955505%, 61.105347%, 28.182983%)" offset="0.257812"/><stop stop-opacity="1" stop-color="rgb(81.083679%, 61.323547%, 28.456116%)" offset="0.265625"/><stop stop-opacity="1" stop-color="rgb(81.211853%, 61.543274%, 28.729248%)" offset="0.273438"/><stop stop-opacity="1" stop-color="rgb(81.338501%, 61.763%, 29.00238%)" offset="0.28125"/><stop stop-opacity="1" stop-color="rgb(81.466675%, 61.982727%, 29.275513%)" offset="0.289062"/><stop stop-opacity="1" stop-color="rgb(81.594849%, 62.202454%, 29.548645%)" offset="0.296875"/><stop stop-opacity="1" stop-color="rgb(81.723022%, 62.420654%, 29.821777%)" offset="0.304688"/><stop stop-opacity="1" stop-color="rgb(81.84967%, 62.640381%, 30.09491%)" offset="0.3125"/><stop stop-opacity="1" stop-color="rgb(81.977844%, 62.860107%, 30.368042%)" offset="0.320313"/><stop stop-opacity="1" stop-color="rgb(82.106018%, 63.079834%, 30.641174%)" offset="0.328125"/><stop stop-opacity="1" stop-color="rgb(82.234192%, 63.298035%, 30.914307%)" offset="0.335938"/><stop stop-opacity="1" stop-color="rgb(82.362366%, 63.517761%, 31.187439%)" offset="0.34375"/><stop stop-opacity="1" stop-color="rgb(82.489014%, 63.737488%, 31.460571%)" offset="0.351562"/><stop stop-opacity="1" stop-color="rgb(82.617188%, 63.957214%, 31.733704%)" offset="0.359375"/><stop stop-opacity="1" stop-color="rgb(82.745361%, 64.175415%, 32.006836%)" offset="0.367188"/><stop stop-opacity="1" stop-color="rgb(82.873535%, 64.395142%, 32.279968%)" offset="0.375"/><stop stop-opacity="1" stop-color="rgb(83.001709%, 64.614868%, 32.553101%)" offset="0.382812"/><stop stop-opacity="1" stop-color="rgb(83.128357%, 64.834595%, 32.826233%)" offset="0.390625"/><stop stop-opacity="1" stop-color="rgb(83.256531%, 65.054321%, 33.099365%)" offset="0.398438"/><stop stop-opacity="1" stop-color="rgb(83.384705%, 65.272522%, 33.372498%)" offset="0.40625"/><stop stop-opacity="1" stop-color="rgb(83.512878%, 65.492249%, 33.64563%)" offset="0.414063"/><stop stop-opacity="1" stop-color="rgb(83.639526%, 65.711975%, 33.918762%)" offset="0.421875"/><stop stop-opacity="1" stop-color="rgb(83.7677%, 65.931702%, 34.191895%)" offset="0.429688"/><stop stop-opacity="1" stop-color="rgb(83.895874%, 66.149902%, 34.465027%)" offset="0.4375"/><stop stop-opacity="1" stop-color="rgb(84.024048%, 66.369629%, 34.738159%)" offset="0.445312"/><stop stop-opacity="1" stop-color="rgb(84.152222%, 66.589355%, 35.011292%)" offset="0.453125"/><stop stop-opacity="1" stop-color="rgb(84.27887%, 66.809082%, 35.284424%)" offset="0.460937"/><stop stop-opacity="1" stop-color="rgb(84.407043%, 67.027283%, 35.557556%)" offset="0.46875"/><stop stop-opacity="1" stop-color="rgb(84.535217%, 67.247009%, 35.830688%)" offset="0.476563"/><stop stop-opacity="1" stop-color="rgb(84.663391%, 67.466736%, 36.103821%)" offset="0.484375"/><stop stop-opacity="1" stop-color="rgb(84.791565%, 67.686462%, 36.376953%)" offset="0.492188"/><stop stop-opacity="1" stop-color="rgb(84.918213%, 67.906189%, 36.650085%)" offset="0.5"/><stop stop-opacity="1" stop-color="rgb(85.046387%, 68.12439%, 36.923218%)" offset="0.507812"/><stop stop-opacity="1" stop-color="rgb(85.174561%, 68.344116%, 37.19635%)" offset="0.515625"/><stop stop-opacity="1" stop-color="rgb(85.302734%, 68.563843%, 37.469482%)" offset="0.523438"/><stop stop-opacity="1" stop-color="rgb(85.429382%, 68.783569%, 37.742615%)" offset="0.53125"/><stop stop-opacity="1" stop-color="rgb(85.557556%, 69.00177%, 38.015747%)" offset="0.539063"/><stop stop-opacity="1" stop-color="rgb(85.68573%, 69.221497%, 38.288879%)" offset="0.546875"/><stop stop-opacity="1" stop-color="rgb(85.813904%, 69.441223%, 38.562012%)" offset="0.554688"/><stop stop-opacity="1" stop-color="rgb(85.942078%, 69.66095%, 38.835144%)" offset="0.5625"/><stop stop-opacity="1" stop-color="rgb(86.068726%, 69.880676%, 39.108276%)" offset="0.570313"/><stop stop-opacity="1" stop-color="rgb(86.196899%, 70.098877%, 39.381409%)" offset="0.578125"/><stop stop-opacity="1" stop-color="rgb(86.325073%, 70.318604%, 39.654541%)" offset="0.585938"/><stop stop-opacity="1" stop-color="rgb(86.453247%, 70.53833%, 39.927673%)" offset="0.59375"/><stop stop-opacity="1" stop-color="rgb(86.581421%, 70.758057%, 40.200806%)" offset="0.601563"/><stop stop-opacity="1" stop-color="rgb(86.708069%, 70.976257%, 40.473938%)" offset="0.609375"/><stop stop-opacity="1" stop-color="rgb(86.836243%, 71.195984%, 40.74707%)" offset="0.617187"/><stop stop-opacity="1" stop-color="rgb(86.964417%, 71.41571%, 41.020203%)" offset="0.625"/><stop stop-opacity="1" stop-color="rgb(87.09259%, 71.635437%, 41.293335%)" offset="0.632812"/><stop stop-opacity="1" stop-color="rgb(87.220764%, 71.853638%, 41.566467%)" offset="0.640625"/><stop stop-opacity="1" stop-color="rgb(87.347412%, 72.073364%, 41.8396%)" offset="0.648437"/><stop stop-opacity="1" stop-color="rgb(87.475586%, 72.293091%, 42.112732%)" offset="0.65625"/><stop stop-opacity="1" stop-color="rgb(87.60376%, 72.512817%, 42.385864%)" offset="0.664062"/><stop stop-opacity="1" stop-color="rgb(87.731934%, 72.732544%, 42.658997%)" offset="0.671875"/><stop stop-opacity="1" stop-color="rgb(87.858582%, 72.950745%, 42.932129%)" offset="0.679688"/><stop stop-opacity="1" stop-color="rgb(87.986755%, 73.170471%, 43.205261%)" offset="0.6875"/><stop stop-opacity="1" stop-color="rgb(88.114929%, 73.390198%, 43.478394%)" offset="0.695312"/><stop stop-opacity="1" stop-color="rgb(88.243103%, 73.609924%, 43.751526%)" offset="0.703125"/><stop stop-opacity="1" stop-color="rgb(88.371277%, 73.828125%, 44.024658%)" offset="0.710938"/><stop stop-opacity="1" stop-color="rgb(88.497925%, 74.047852%, 44.297791%)" offset="0.71875"/><stop stop-opacity="1" stop-color="rgb(88.626099%, 74.267578%, 44.570923%)" offset="0.726563"/><stop stop-opacity="1" stop-color="rgb(88.754272%, 74.487305%, 44.844055%)" offset="0.734375"/><stop stop-opacity="1" stop-color="rgb(88.882446%, 74.705505%, 45.117188%)" offset="0.742188"/><stop stop-opacity="1" stop-color="rgb(89.01062%, 74.925232%, 45.39032%)" offset="0.75"/><stop stop-opacity="1" stop-color="rgb(89.137268%, 75.144958%, 45.663452%)" offset="0.757813"/><stop stop-opacity="1" stop-color="rgb(89.265442%, 75.364685%, 45.936584%)" offset="0.765625"/><stop stop-opacity="1" stop-color="rgb(89.393616%, 75.584412%, 46.209717%)" offset="0.773438"/><stop stop-opacity="1" stop-color="rgb(89.52179%, 75.802612%, 46.482849%)" offset="0.78125"/><stop stop-opacity="1" stop-color="rgb(89.648438%, 76.022339%, 46.755981%)" offset="0.789063"/><stop stop-opacity="1" stop-color="rgb(89.776611%, 76.242065%, 47.029114%)" offset="0.796875"/><stop stop-opacity="1" stop-color="rgb(89.904785%, 76.461792%, 47.302246%)" offset="0.804687"/><stop stop-opacity="1" stop-color="rgb(90.032959%, 76.679993%, 47.575378%)" offset="0.8125"/><stop stop-opacity="1" stop-color="rgb(90.161133%, 76.899719%, 47.848511%)" offset="0.820312"/><stop stop-opacity="1" stop-color="rgb(90.287781%, 77.119446%, 48.121643%)" offset="0.828125"/><stop stop-opacity="1" stop-color="rgb(90.415955%, 77.339172%, 48.394775%)" offset="0.835937"/><stop stop-opacity="1" stop-color="rgb(90.544128%, 77.557373%, 48.667908%)" offset="0.84375"/><stop stop-opacity="1" stop-color="rgb(90.672302%, 77.7771%, 48.94104%)" offset="0.851562"/><stop stop-opacity="1" stop-color="rgb(90.800476%, 77.996826%, 49.214172%)" offset="0.859375"/><stop stop-opacity="1" stop-color="rgb(90.927124%, 78.216553%, 49.487305%)" offset="0.867188"/><stop stop-opacity="1" stop-color="rgb(91.055298%, 78.436279%, 49.760437%)" offset="0.875"/><stop stop-opacity="1" stop-color="rgb(91.183472%, 78.65448%, 50.033569%)" offset="0.882812"/><stop stop-opacity="1" stop-color="rgb(91.311646%, 78.874207%, 50.306702%)" offset="0.890625"/><stop stop-opacity="1" stop-color="rgb(91.438293%, 79.093933%, 50.579834%)" offset="0.898438"/><stop stop-opacity="1" stop-color="rgb(91.566467%, 79.31366%, 50.852966%)" offset="0.90625"/><stop stop-opacity="1" stop-color="rgb(91.694641%, 79.53186%, 51.126099%)" offset="0.914063"/><stop stop-opacity="1" stop-color="rgb(91.822815%, 79.751587%, 51.399231%)" offset="0.921875"/><stop stop-opacity="1" stop-color="rgb(91.950989%, 79.971313%, 51.672363%)" offset="0.929688"/><stop stop-opacity="1" stop-color="rgb(92.077637%, 80.19104%, 51.945496%)" offset="0.9375"/><stop stop-opacity="1" stop-color="rgb(92.205811%, 80.409241%, 52.218628%)" offset="0.945313"/><stop stop-opacity="1" stop-color="rgb(92.333984%, 80.628967%, 52.49176%)" offset="0.953125"/><stop stop-opacity="1" stop-color="rgb(92.462158%, 80.848694%, 52.764893%)" offset="0.960938"/><stop stop-opacity="1" stop-color="rgb(92.590332%, 81.06842%, 53.038025%)" offset="0.96875"/><stop stop-opacity="1" stop-color="rgb(92.71698%, 81.288147%, 53.311157%)" offset="0.976563"/><stop stop-opacity="1" stop-color="rgb(92.83905%, 81.498718%, 53.573608%)" offset="0.984375"/><stop stop-opacity="1" stop-color="rgb(92.89856%, 81.599426%, 53.69873%)" offset="1"/></linearGradient></defs><g clip-path="url(#3396914e1b)"><g clip-path="url(#5e7a218861)"><path fill="url(#bd0fa0843e)" d="M 37.515625 150.042969 L 37.515625 217.542969 L 132.734375 217.542969 L 132.734375 150.042969 Z M 37.515625 150.042969 " fill-rule="nonzero"/></g></g><g fill="#ffffff" fill-opacity="1"><g transform="translate(150.06806, 189.431129)"><g><path d="M 5.703125 -20.953125 L 5.703125 0 L 2.265625 0 L 2.265625 -20.953125 Z M 5.703125 -20.953125 "/></g></g></g><g fill="#ffffff" fill-opacity="1"><g transform="translate(164.957637, 189.431129)"><g><path d="M 24.328125 -20.953125 L 24.328125 0 L 20.890625 0 L 20.890625 -14.34375 L 14.5 0 L 12.109375 0 L 5.703125 -14.34375 L 5.703125 0 L 2.265625 0 L 2.265625 -20.953125 L 5.96875 -20.953125 L 13.328125 -4.515625 L 20.640625 -20.953125 Z M 24.328125 -20.953125 "/></g></g></g><g fill="#ffffff" fill-opacity="1"><g transform="translate(198.472085, 189.431129)"><g><path d="M 16.90625 -14.703125 C 16.90625 -13.640625 16.65625 -12.632812 16.15625 -11.6875 C 15.65625 -10.75 14.851562 -9.984375 13.75 -9.390625 C 12.644531 -8.796875 11.226562 -8.5 9.5 -8.5 L 5.703125 -8.5 L 5.703125 0 L 2.265625 0 L 2.265625 -20.953125 L 9.5 -20.953125 C 11.101562 -20.953125 12.460938 -20.675781 13.578125 -20.125 C 14.691406 -19.570312 15.523438 -18.820312 16.078125 -17.875 C 16.628906 -16.925781 16.90625 -15.867188 16.90625 -14.703125 Z M 9.5 -11.296875 C 10.800781 -11.296875 11.769531 -11.59375 12.40625 -12.1875 C 13.050781 -12.78125 13.375 -13.617188 13.375 -14.703125 C 13.375 -16.992188 12.082031 -18.140625 9.5 -18.140625 L 5.703125 -18.140625 L 5.703125 -11.296875 Z M 9.5 -11.296875 "/></g></g></g><g fill="#ffffff" fill-opacity="1"><g transform="translate(223.337122, 189.431129)"><g><path d="M 5.703125 -18.171875 L 5.703125 -12.03125 L 12.9375 -12.03125 L 12.9375 -9.21875 L 5.703125 -9.21875 L 5.703125 -2.796875 L 13.828125 -2.796875 L 13.828125 0 L 2.265625 0 L 2.265625 -20.984375 L 13.828125 -20.984375 L 13.828125 -18.171875 Z M 5.703125 -18.171875 "/></g></g></g><g fill="#ffffff" fill-opacity="1"><g transform="translate(246.062403, 189.431129)"><g><path d="M 13.140625 0 L 8.3125 -8.375 L 5.703125 -8.375 L 5.703125 0 L 2.265625 0 L 2.265625 -20.953125 L 9.5 -20.953125 C 11.101562 -20.953125 12.460938 -20.671875 13.578125 -20.109375 C 14.691406 -19.546875 15.523438 -18.789062 16.078125 -17.84375 C 16.628906 -16.894531 16.90625 -15.835938 16.90625 -14.671875 C 16.90625 -13.304688 16.507812 -12.066406 15.71875 -10.953125 C 14.925781 -9.835938 13.707031 -9.082031 12.0625 -8.6875 L 17.234375 0 Z M 5.703125 -11.125 L 9.5 -11.125 C 10.78125 -11.125 11.742188 -11.441406 12.390625 -12.078125 C 13.046875 -12.722656 13.375 -13.585938 13.375 -14.671875 C 13.375 -15.765625 13.050781 -16.613281 12.40625 -17.21875 C 11.769531 -17.832031 10.800781 -18.140625 9.5 -18.140625 L 5.703125 -18.140625 Z M 5.703125 -11.125 "/></g></g></g><g fill="#ffffff" fill-opacity="1"><g transform="translate(272.042518, 189.431129)"><g><path d="M 5.703125 -20.953125 L 5.703125 0 L 2.265625 0 L 2.265625 -20.953125 Z M 5.703125 -20.953125 "/></g></g></g><g fill="#ffffff" fill-opacity="1"><g transform="translate(286.932092, 189.431129)"><g><path d="M 14.890625 -4.28125 L 6.125 -4.28125 L 4.609375 0 L 1.03125 0 L 8.53125 -20.984375 L 12.515625 -20.984375 L 20.015625 0 L 16.390625 0 Z M 13.921875 -7.078125 L 10.515625 -16.8125 L 7.078125 -7.078125 Z M 13.921875 -7.078125 "/></g></g></g><g fill="#ffffff" fill-opacity="1"><g transform="translate(314.871139, 189.431129)"><g><path d="M 5.703125 -2.765625 L 12.78125 -2.765625 L 12.78125 0 L 2.265625 0 L 2.265625 -20.953125 L 5.703125 -20.953125 Z M 5.703125 -2.765625 "/></g></g></g><g fill="#d2a14f" fill-opacity="1"><g transform="translate(214.095864, 209.788415)"><g><path d="M 4.109375 0.09375 C 3.472656 0.09375 2.90625 -0.015625 2.40625 -0.234375 C 1.90625 -0.460938 1.507812 -0.773438 1.21875 -1.171875 C 0.9375 -1.578125 0.789062 -2.039062 0.78125 -2.5625 L 2.125 -2.5625 C 2.164062 -2.113281 2.347656 -1.734375 2.671875 -1.421875 C 3.003906 -1.117188 3.484375 -0.96875 4.109375 -0.96875 C 4.710938 -0.96875 5.1875 -1.113281 5.53125 -1.40625 C 5.875 -1.707031 6.046875 -2.09375 6.046875 -2.5625 C 6.046875 -2.9375 5.941406 -3.238281 5.734375 -3.46875 C 5.535156 -3.695312 5.285156 -3.867188 4.984375 -3.984375 C 4.679688 -4.109375 4.269531 -4.238281 3.75 -4.375 C 3.113281 -4.539062 2.601562 -4.707031 2.21875 -4.875 C 1.84375 -5.039062 1.519531 -5.300781 1.25 -5.65625 C 0.976562 -6.007812 0.84375 -6.484375 0.84375 -7.078125 C 0.84375 -7.597656 0.972656 -8.0625 1.234375 -8.46875 C 1.503906 -8.875 1.878906 -9.1875 2.359375 -9.40625 C 2.847656 -9.625 3.40625 -9.734375 4.03125 -9.734375 C 4.925781 -9.734375 5.660156 -9.507812 6.234375 -9.0625 C 6.816406 -8.613281 7.144531 -8.015625 7.21875 -7.265625 L 5.84375 -7.265625 C 5.789062 -7.640625 5.59375 -7.96875 5.25 -8.25 C 4.914062 -8.53125 4.46875 -8.671875 3.90625 -8.671875 C 3.382812 -8.671875 2.957031 -8.53125 2.625 -8.25 C 2.289062 -7.976562 2.125 -7.601562 2.125 -7.125 C 2.125 -6.769531 2.222656 -6.484375 2.421875 -6.265625 C 2.617188 -6.046875 2.863281 -5.878906 3.15625 -5.765625 C 3.445312 -5.648438 3.851562 -5.515625 4.375 -5.359375 C 5.007812 -5.191406 5.519531 -5.019531 5.90625 -4.84375 C 6.289062 -4.675781 6.617188 -4.414062 6.890625 -4.0625 C 7.171875 -3.707031 7.3125 -3.226562 7.3125 -2.625 C 7.3125 -2.15625 7.1875 -1.710938 6.9375 -1.296875 C 6.6875 -0.878906 6.316406 -0.539062 5.828125 -0.28125 C 5.347656 -0.03125 4.773438 0.09375 4.109375 0.09375 Z M 4.109375 0.09375 "/></g></g></g><g fill="#d2a14f" fill-opacity="1"><g transform="translate(227.705978, 209.788415)"><g><path d="M 6.75 -2.140625 L 2.546875 -2.140625 L 1.78125 0 L 0.453125 0 L 3.9375 -9.5625 L 5.375 -9.5625 L 8.84375 0 L 7.515625 0 Z M 6.390625 -3.15625 L 4.65625 -8.015625 L 2.90625 -3.15625 Z M 6.390625 -3.15625 "/></g></g></g><g fill="#d2a14f" fill-opacity="1"><g transform="translate(242.515768, 209.788415)"><g><path d="M 4.109375 0.09375 C 3.472656 0.09375 2.90625 -0.015625 2.40625 -0.234375 C 1.90625 -0.460938 1.507812 -0.773438 1.21875 -1.171875 C 0.9375 -1.578125 0.789062 -2.039062 0.78125 -2.5625 L 2.125 -2.5625 C 2.164062 -2.113281 2.347656 -1.734375 2.671875 -1.421875 C 3.003906 -1.117188 3.484375 -0.96875 4.109375 -0.96875 C 4.710938 -0.96875 5.1875 -1.113281 5.53125 -1.40625 C 5.875 -1.707031 6.046875 -2.09375 6.046875 -2.5625 C 6.046875 -2.9375 5.941406 -3.238281 5.734375 -3.46875 C 5.535156 -3.695312 5.285156 -3.867188 4.984375 -3.984375 C 4.679688 -4.109375 4.269531 -4.238281 3.75 -4.375 C 3.113281 -4.539062 2.601562 -4.707031 2.21875 -4.875 C 1.84375 -5.039062 1.519531 -5.300781 1.25 -5.65625 C 0.976562 -6.007812 0.84375 -6.484375 0.84375 -7.078125 C 0.84375 -7.597656 0.972656 -8.0625 1.234375 -8.46875 C 1.503906 -8.875 1.878906 -9.1875 2.359375 -9.40625 C 2.847656 -9.625 3.40625 -9.734375 4.03125 -9.734375 C 4.925781 -9.734375 5.660156 -9.507812 6.234375 -9.0625 C 6.816406 -8.613281 7.144531 -8.015625 7.21875 -7.265625 L 5.84375 -7.265625 C 5.789062 -7.640625 5.59375 -7.96875 5.25 -8.25 C 4.914062 -8.53125 4.46875 -8.671875 3.90625 -8.671875 C 3.382812 -8.671875 2.957031 -8.53125 2.625 -8.25 C 2.289062 -7.976562 2.125 -7.601562 2.125 -7.125 C 2.125 -6.769531 2.222656 -6.484375 2.421875 -6.265625 C 2.617188 -6.046875 2.863281 -5.878906 3.15625 -5.765625 C 3.445312 -5.648438 3.851562 -5.515625 4.375 -5.359375 C 5.007812 -5.191406 5.519531 -5.019531 5.90625 -4.84375 C 6.289062 -4.675781 6.617188 -4.414062 6.890625 -4.0625 C 7.171875 -3.707031 7.3125 -3.226562 7.3125 -2.625 C 7.3125 -2.15625 7.1875 -1.710938 6.9375 -1.296875 C 6.6875 -0.878906 6.316406 -0.539062 5.828125 -0.28125 C 5.347656 -0.03125 4.773438 0.09375 4.109375 0.09375 Z M 4.109375 0.09375 "/></g></g></g><g fill="#d2a14f" fill-opacity="1"><g transform="translate(256.125884, 209.788415)"><g><path d="M 4.109375 0.09375 C 3.472656 0.09375 2.90625 -0.015625 2.40625 -0.234375 C 1.90625 -0.460938 1.507812 -0.773438 1.21875 -1.171875 C 0.9375 -1.578125 0.789062 -2.039062 0.78125 -2.5625 L 2.125 -2.5625 C 2.164062 -2.113281 2.347656 -1.734375 2.671875 -1.421875 C 3.003906 -1.117188 3.484375 -0.96875 4.109375 -0.96875 C 4.710938 -0.96875 5.1875 -1.113281 5.53125 -1.40625 C 5.875 -1.707031 6.046875 -2.09375 6.046875 -2.5625 C 6.046875 -2.9375 5.941406 -3.238281 5.734375 -3.46875 C 5.535156 -3.695312 5.285156 -3.867188 4.984375 -3.984375 C 4.679688 -4.109375 4.269531 -4.238281 3.75 -4.375 C 3.113281 -4.539062 2.601562 -4.707031 2.21875 -4.875 C 1.84375 -5.039062 1.519531 -5.300781 1.25 -5.65625 C 0.976562 -6.007812 0.84375 -6.484375 0.84375 -7.078125 C 0.84375 -7.597656 0.972656 -8.0625 1.234375 -8.46875 C 1.503906 -8.875 1.878906 -9.1875 2.359375 -9.40625 C 2.847656 -9.625 3.40625 -9.734375 4.03125 -9.734375 C 4.925781 -9.734375 5.660156 -9.507812 6.234375 -9.0625 C 6.816406 -8.613281 7.144531 -8.015625 7.21875 -7.265625 L 5.84375 -7.265625 C 5.789062 -7.640625 5.59375 -7.96875 5.25 -8.25 C 4.914062 -8.53125 4.46875 -8.671875 3.90625 -8.671875 C 3.382812 -8.671875 2.957031 -8.53125 2.625 -8.25 C 2.289062 -7.976562 2.125 -7.601562 2.125 -7.125 C 2.125 -6.769531 2.222656 -6.484375 2.421875 -6.265625 C 2.617188 -6.046875 2.863281 -5.878906 3.15625 -5.765625 C 3.445312 -5.648438 3.851562 -5.515625 4.375 -5.359375 C 5.007812 -5.191406 5.519531 -5.019531 5.90625 -4.84375 C 6.289062 -4.675781 6.617188 -4.414062 6.890625 -4.0625 C 7.171875 -3.707031 7.3125 -3.226562 7.3125 -2.625 C 7.3125 -2.15625 7.1875 -1.710938 6.9375 -1.296875 C 6.6875 -0.878906 6.316406 -0.539062 5.828125 -0.28125 C 5.347656 -0.03125 4.773438 0.09375 4.109375 0.09375 Z M 4.109375 0.09375 "/></g></g></g></svg>